<svg id="Capa_1" enable-background="new 0 0 64 64" height="512" viewBox="0 0 64 64" width="512" xmlns="http://www.w3.org/2000/svg"><path d="m61 53h-10l-13 4-14-4-12 4-9-4v-46l9 4 12-4 14 4 13-4h10z" fill="#ffc477"/><circle cx="44" cy="28" fill="#2488ff" r="12"/><path d="m47 44v14c0 1.657-1.343 3-3 3s-3-1.343-3-3v-14z" fill="#787680"/><path d="m42 40h4v4h-4z" fill="#e0e0e2"/><ellipse cx="44" cy="35" fill="#d80027" rx="5" ry="2"/><path d="m50 26c0 2.11-2.44 5.19-4.2 7.14-1.01 1.11-1.8 1.86-1.8 1.86s-.79-.75-1.8-1.86c-1.76-1.95-4.2-5.03-4.2-7.14 0-3.314 2.686-6 6-6s6 2.686 6 6z" fill="#ff5023"/><circle cx="44" cy="26" fill="#ffda44" r="2"/><path d="m61 6h-10c-.1 0-.199.015-.294.044l-12.717 3.913-13.715-3.918c-.193-.055-.399-.051-.59.012l-11.632 3.878-8.646-3.843c-.505-.224-1.096.003-1.32.508-.057.128-.086.266-.086.406v46c0 .395.233.754.594.914l9 4c.228.101.485.114.722.035l11.706-3.9 13.7 3.915c.185.056.382.056.567 0l1.711-.531v.567c0 2.209 1.791 4 4 4s4-1.791 4-4v-3.031l3.15-.969h9.85c.552 0 1-.448 1-1v-46c0-.552-.448-1-1-1zm-57 2.539 7 3.111v4.35h2v-4.279l10-3.334v43.892l-10 3.334v-4.613h-2v4.461l-7-3.111zm40 30.461c-6.075 0-11-4.925-11-11s4.925-11 11-11 11 4.925 11 11c-.007 6.072-4.928 10.993-11 11zm-1 1.949c.331.026.662.051 1 .051s.669-.025 1-.051v2.051h-2zm3 17.051c0 1.105-.895 2-2 2s-2-.895-2-2v-13h4zm14-6h-8v-5h-2v5.261l-2 .615v-8.876c0-.552-.448-1-1-1v-2.363c6.986-1.657 11.306-8.663 9.649-15.649s-8.663-11.306-15.649-9.649-11.306 8.663-9.649 15.649c1.134 4.782 4.867 8.515 9.649 9.649v2.363c-.552 0-1 .448-1 1v11.341l-2.01.616-12.99-3.711v-43.92l12.726 3.635c.186.055.383.053.568-.005l11.706-3.602v3.646h2v-4h8z"/><path d="m44 19c-3.864.004-6.996 3.136-7 7 0 2 1.715 4.556 3.365 6.554-1.506.525-2.365 1.389-2.365 2.446 0 2.061 3.11 3 6 3s6-.939 6-3c0-1.057-.859-1.921-2.365-2.446 1.65-1.998 3.365-4.554 3.365-6.554-.004-3.864-3.136-6.996-7-7zm0 2c2.76.003 4.997 2.24 5 5 0 1.889-2.831 5.4-5 7.6-2.169-2.2-5-5.709-5-7.6.003-2.76 2.24-4.997 5-5zm3.973 14c-.265.33-1.636 1-3.973 1s-3.708-.67-3.973-1c.518-.422 1.144-.691 1.806-.778.726.778 1.3 1.333 1.479 1.5.386.365.989.365 1.375 0 .18-.171.754-.726 1.48-1.5.662.087 1.288.356 1.806.778z"/><path d="m47 26c0-1.657-1.343-3-3-3s-3 1.343-3 3 1.343 3 3 3 3-1.343 3-3zm-4 0c0-.552.448-1 1-1s1 .448 1 1-.448 1-1 1-1-.448-1-1z"/></svg>